<svg xmlns="http://www.w3.org/2000/svg" width="512" height="512" viewBox="0 0 512 512">
  <defs>
    <linearGradient id="tile" x2=".8" y2="1"><stop stop-color="#192c40"/><stop offset="1" stop-color="#050e19"/></linearGradient>
    <linearGradient id="armor" x1="0" y1="0" x2="1" y2="1"><stop stop-color="#f4f1df"/><stop offset=".5" stop-color="#b6c9ce"/><stop offset="1" stop-color="#526e80"/></linearGradient>
    <linearGradient id="visor" x1="0" y1="0" x2="0" y2="1"><stop stop-color="#b5ffff"/><stop offset=".35" stop-color="#3ee5fb"/><stop offset="1" stop-color="#087eaf"/></linearGradient>
    <linearGradient id="orbit"><stop stop-color="#f4af52"/><stop offset="1" stop-color="#ffda92"/></linearGradient>
  </defs>
  <rect x="8" y="8" width="496" height="496" rx="104" fill="url(#tile)"/>
  <rect x="17" y="17" width="478" height="478" rx="96" fill="none" stroke="#294758" stroke-width="3"/>
  <!-- Ringed gas giant behind the helmet. -->
  <g transform="rotate(-24 380 121)">
    <ellipse cx="380" cy="121" rx="89" ry="23" fill="none" stroke="#839dad" stroke-width="8"/>
    <circle cx="380" cy="121" r="57" fill="#d49a5c"/>
    <path d="M329 98q51 18 102 0M325 121q55 18 110 0M335 149q45 12 90 0" fill="none" stroke="#efc78f" stroke-width="11"/>
    <path d="M387 65a57 57 0 0 1 5 112c26-20 32-75-5-112" fill="#a1653d"/>
    <path d="M291 121a89 23 0 0 0 178 0" fill="none" stroke="#e6d4b2" stroke-width="8"/>
  </g>
  <path d="M98 330v15m-7-8h14M411 364v15m-7-8h14" stroke="#658a9d" stroke-width="3"/>
  <circle cx="252" cy="67" r="3" fill="#d5edf4"/>
  <circle cx="443" cy="276" r="3" fill="#d5edf4"/>
  <!-- Sculpted helmet plates, broad cyan visor, and dark breathing grille. -->
  <path d="M126 209l28-61 62-35h80l62 35 28 61-9 114-43 64-78 36-78-36-43-64z" fill="#050c15" stroke="#050c15" stroke-width="16" stroke-linejoin="round"/>
  <path d="M141 210l28-52 51-30h72l51 30 28 52-59-19-56 14-56-14z" fill="url(#armor)"/>
  <path d="M235 130h42l12 55-33 12-33-12z" fill="#e6ede5"/>
  <path d="M155 216l42-11 59 18 59-18 42 11-13 62-50 26h-76l-50-26z" fill="url(#visor)"/>
  <path d="M175 220l27-4 54 16 54-16 27 4" fill="none" stroke="#d2ffff" stroke-width="7" stroke-linejoin="round"/>
  <path d="M140 238l19 46 41 25-21 57-28-46zM372 238l-19 46-41 25 21 57 28-46z" fill="url(#armor)"/>
  <path d="M212 320l44-13 44 13 19 51-63 33-63-33z" fill="url(#armor)"/>
  <path d="M231 327h50l11 36-36 18-36-18z" fill="#172d3b"/>
  <path d="M236 340h40m-36 13h32" stroke="#678c9a" stroke-width="5"/>
  <path d="M145 287l15 9m207-9-15 9" stroke="#f6b24f" stroke-width="10"/>
  <path d="M171 416h170" stroke="#35cfe8" stroke-width="6" stroke-linecap="round"/>
</svg>
